<svg width="228" height="56" viewBox="0 0 228 56" fill="none" xmlns="http://www.w3.org/2000/svg" role="img" aria-label="Contato">
  <defs>
    <linearGradient id="bg_email" x1="0" y1="0" x2="1" y2="1">
      <stop offset="0%" stop-color="#0B1F3A"/>
      <stop offset="100%" stop-color="#06111F"/>
    </linearGradient>
  </defs>
  <rect x="1" y="1" width="226" height="54" rx="12" fill="url(#bg_email)" stroke="#D9A441" stroke-opacity="0.75" stroke-width="2"/>
  <rect x="9" y="9" width="38" height="38" rx="9" fill="#D9A441" fill-opacity="0.14" stroke="#D9A441" stroke-opacity="0.55"/>
  <g transform="translate(18 18)" fill="#FFFFFF">
    <path d="M2 3h16a2 2 0 0 1 2 2v10a2 2 0 0 1-2 2H2a2 2 0 0 1-2-2V5a2 2 0 0 1 2-2Zm0 3.2v.4l8 5 8-5v-.4l-8 5-8-5Z"/>
  </g>
  <text x="62" y="35" font-family="Inter, Segoe UI, Arial, sans-serif" font-size="16" font-weight="800" letter-spacing="1.2" fill="#FFFFFF">CONTATO</text>
  <path d="M202 20 L212 28 L202 36" stroke="#D9A441" stroke-width="3" stroke-linecap="round" stroke-linejoin="round"/>
</svg>
