<svg xmlns="http://www.w3.org/2000/svg" width="1816" height="577" viewBox="0 0 1816 577">
<g>
<path d="M 1735.50 552.63 L 1725.50 556.50 L 911.50 556.64 C463.80,556.71 96.60,556.58 95.50,556.35 C78.14,552.72 66.04,547.19 53.86,537.33 C40.06,526.15 29.68,510.70 23.76,492.50 L 20.50 482.50 L 20.50 289.50 C20.50,127.99 20.73,95.77 21.88,92.00 C28.34,71.00 35.46,58.63 48.14,46.39 C61.42,33.57 75.34,26.26 93.83,22.39 C99.50,21.21 221.31,21.00 908.50,21.00 C1627.21,21.00 1717.30,21.17 1723.78,22.52 C1738.22,25.53 1750.15,31.05 1761.14,39.78 C1779.45,54.33 1790.98,73.07 1795.12,95.00 C1796.80,103.91 1796.91,115.87 1796.95,288.50 L 1796.96 302.41 C1797.00,468.81 1797.00,481.18 1793.23,492.28 C1792.82,493.47 1792.37,494.65 1791.88,496.00 C1788.44,505.35 1781.14,518.25 1775.53,524.88 C1764.61,537.78 1752.90,545.90 1735.50,552.63 ZM 154.76 451.99 C157.37,452.43 202.70,452.72 255.50,452.62 L 351.50 452.44 L 359.50 449.74 C377.60,443.64 392.61,432.41 402.47,417.59 C409.25,407.40 411.09,403.08 414.37,389.73 L 417.00 379.04 L 416.99 290.27 C416.99,233.19 416.61,199.18 415.94,195.00 C410.62,162.05 387.08,136.08 355.09,127.89 C348.19,126.13 343.03,125.92 298.00,125.59 C270.77,125.39 226.90,125.54 200.50,125.92 L 152.50 126.61 L 143.70 129.72 C117.03,139.15 98.30,159.65 90.89,187.50 L 88.50 196.50 L 88.50 289.00 C88.50,358.57 88.81,383.00 89.74,387.55 C91.42,395.75 96.85,409.30 101.15,416.02 C113.11,434.71 133.36,448.30 154.76,451.99 ZM 348.16 441.59 C342.14,442.75 324.78,442.97 251.66,442.85 C202.62,442.77 161.15,442.51 159.50,442.29 C136.33,439.08 116.64,424.45 105.89,402.46 C104.39,399.39 103.18,397.00 102.19,394.52 C97.99,383.92 98.00,371.65 98.00,298.22 C98.00,295.73 98.00,293.17 98.00,290.54 C98.00,288.51 98.00,286.52 98.00,284.58 C98.00,208.29 98.00,195.39 102.38,184.21 C103.39,181.65 104.63,179.18 106.14,176.06 C110.54,167.03 112.39,164.45 119.86,157.03 C129.20,147.75 137.67,142.57 149.82,138.69 C156.40,136.59 157.85,136.55 247.00,136.22 C338.73,135.88 347.54,136.15 357.80,139.57 C371.70,144.22 385.61,154.89 393.96,167.33 C398.59,174.21 403.61,185.59 404.86,192.00 C405.56,195.56 406.09,229.15 406.36,287.00 C406.83,383.98 406.83,384.09 401.42,397.40 C391.91,420.80 372.50,436.91 348.16,441.59 ZM 229.61 378.42 C230.13,379.78 232.71,380.00 248.11,380.00 L 266.00 380.00 L 266.00 337.58 C266.00,314.25 266.27,294.45 266.61,293.58 C267.12,292.26 269.23,292.00 279.63,292.00 C292.04,292.00 292.05,292.00 293.02,289.43 C293.56,288.02 294.00,285.21 294.01,283.18 C294.01,281.16 294.42,277.92 294.93,276.00 C295.43,274.08 296.15,269.69 296.52,266.25 L 297.20 260.00 L 282.21 260.00 C269.46,260.00 267.12,259.76 266.61,258.42 C266.27,257.55 266.00,253.16 266.00,248.67 C266.00,233.69 269.00,231.15 286.78,231.06 L 297.05 231.00 L 296.50 199.50 L 281.12 199.22 C263.28,198.90 256.86,199.84 248.31,204.04 C235.17,210.47 229.00,224.22 229.00,247.08 L 229.00 259.00 L 207.20 259.00 L 206.50 272.25 C206.12,279.54 205.96,286.85 206.15,288.50 L 206.50 291.50 L 229.00 292.07 L 229.00 334.45 C229.00,357.76 229.27,377.55 229.61,378.42 ZM 1012.57 335.99 L 1013.27 343.14 L 1039.39 342.76 C1063.32,342.40 1065.96,342.19 1070.95,340.20 C1078.28,337.28 1082.93,333.32 1085.97,327.41 C1088.10,323.27 1088.49,321.17 1088.47,314.00 C1088.44,306.52 1088.11,305.00 1085.76,301.34 C1084.29,299.05 1081.29,296.16 1079.08,294.93 L 1075.08 292.68 L 1079.47 288.82 C1085.30,283.69 1087.49,277.95 1086.66,269.97 C1085.46,258.54 1079.99,252.02 1068.17,247.95 C1062.10,245.85 1059.34,245.61 1037.39,245.25 L 1013.27 244.85 L 1012.70 253.67 C1011.85,266.76 1011.75,327.73 1012.57,335.99 ZM 1140.50 343.07 C1145.73,344.33 1157.32,344.03 1162.34,342.51 C1182.67,336.34 1193.00,319.53 1193.00,292.61 C1193.00,273.51 1184.41,256.65 1171.18,249.78 C1150.88,239.25 1124.30,246.57 1114.85,265.30 C1107.19,280.46 1107.05,307.02 1114.54,322.32 C1119.11,331.65 1130.36,340.64 1140.50,343.07 ZM 1245.00 342.64 C1251.37,344.37 1261.26,344.27 1267.66,342.41 C1280.10,338.80 1291.64,327.19 1295.61,314.32 C1298.06,306.38 1298.21,282.78 1295.87,275.50 C1289.01,254.28 1274.14,243.88 1252.61,245.25 C1234.74,246.40 1222.17,256.23 1216.83,273.25 C1214.29,281.34 1213.34,298.37 1214.91,307.43 C1218.08,325.63 1228.86,338.25 1245.00,342.64 ZM 1607.39 380.02 C1610.67,381.35 1615.83,381.14 1618.80,379.57 C1623.37,377.14 1702.37,296.22 1703.63,292.68 C1704.09,291.39 1704.48,290.34 1704.60,289.26 C1705.13,284.18 1699.34,278.43 1663.74,243.07 L 1661.80 241.15 C1638.74,218.24 1618.88,198.95 1617.68,198.29 C1608.36,193.10 1596.19,204.90 1601.15,214.32 C1601.78,215.52 1618.43,232.48 1638.16,252.00 C1657.88,271.52 1674.01,288.11 1674.01,288.86 C1674.00,289.60 1657.61,306.71 1637.58,326.87 C1613.93,350.67 1600.92,364.48 1600.47,366.26 C1600.09,367.77 1600.05,370.05 1600.37,371.34 C1601.16,374.48 1604.79,378.97 1607.39,380.02 ZM 1320.50 245.50 L 1319.98 343.00 L 1343.79 343.00 L 1344.50 335.05 C1344.88,330.67 1344.91,324.93 1344.55,322.30 C1343.93,317.65 1344.05,317.34 1348.44,312.50 C1350.41,310.32 1351.45,308.75 1352.57,308.69 C1354.25,308.60 1356.12,311.96 1361.64,321.92 C1362.49,323.44 1363.42,325.12 1364.45,326.97 L 1373.40 343.00 L 1387.20 343.00 C1397.67,343.00 1401.00,342.69 1401.00,341.73 C1401.00,341.04 1398.15,335.75 1394.67,329.98 C1391.19,324.22 1384.38,312.98 1379.55,305.00 C1374.72,297.02 1370.55,289.96 1370.30,289.30 C1369.84,288.15 1374.49,281.65 1389.46,262.48 C1399.38,249.78 1401.18,247.09 1400.49,245.98 C1400.14,245.42 1393.97,245.00 1386.00,245.00 L 1372.12 245.00 L 1361.30 260.75 C1355.35,269.41 1349.24,278.41 1347.72,280.75 C1346.21,283.09 1344.87,285.00 1344.74,285.00 C1344.61,285.00 1344.55,279.71 1344.60,273.25 C1344.66,266.79 1344.48,257.77 1344.20,253.22 L 1343.70 244.94 L 1332.10 245.22 ZM 716.57 342.11 C717.18,343.09 724.05,343.10 733.97,342.13 L 740.44 341.50 L 745.69 325.50 L 778.41 325.50 L 783.59 342.50 L 795.53 342.50 C805.84,342.50 807.52,342.27 807.79,340.85 C807.97,339.94 805.12,331.16 801.46,321.35 C781.46,267.62 776.15,253.26 775.49,251.00 C774.11,246.30 773.32,246.00 762.41,246.00 C753.46,246.00 751.94,246.24 751.10,247.81 C750.57,248.80 747.37,257.02 744.00,266.06 C740.62,275.10 736.14,287.00 734.05,292.50 C731.95,298.00 729.03,305.88 727.56,310.00 C726.08,314.12 722.88,322.84 720.45,329.36 C718.01,335.88 716.26,341.62 716.57,342.11 ZM 926.46 341.76 C926.84,342.75 934.14,342.97 960.22,342.76 L 993.50 342.50 L 993.79 333.27 L 994.07 324.04 L 972.79 323.77 L 951.50 323.50 L 951.22 312.77 L 950.93 302.05 L 969.22 301.77 L 987.50 301.50 L 987.50 283.50 L 951.00 282.95 L 951.00 265.04 L 972.25 264.77 L 993.50 264.50 L 993.50 245.50 L 926.50 245.50 L 926.24 293.00 C926.10,319.12 926.20,341.07 926.46,341.76 ZM 854.73 342.91 C860.49,344.27 871.92,344.13 877.50,342.64 C888.43,339.71 897.25,333.22 901.53,324.95 C902.87,322.36 906.00,312.20 906.00,310.45 C906.00,310.20 900.60,310.00 894.00,310.00 L 882.00 310.00 L 882.00 312.75 C881.99,319.23 873.84,326.00 866.04,326.00 C861.98,326.00 856.49,323.44 854.15,320.46 C850.29,315.55 849.51,311.22 849.51,294.50 C849.50,271.45 852.36,265.13 863.25,264.23 C874.05,263.33 880.88,267.36 881.93,275.26 L 882.50 279.50 L 893.41 279.79 C899.42,279.94 904.69,279.71 905.13,279.27 C906.12,278.28 903.47,267.85 901.00,263.00 C898.77,258.62 891.57,251.84 886.32,249.17 C876.24,244.02 858.79,243.74 848.07,248.55 C840.21,252.07 832.01,260.67 829.11,268.43 C825.10,279.15 823.76,297.91 826.09,310.54 C829.08,326.72 840.43,339.54 854.73,342.91 ZM 641.00 244.97 L 641.00 343.00 L 665.00 343.00 L 665.00 305.00 L 669.75 304.88 C672.36,304.81 680.80,304.47 688.50,304.13 L 702.50 303.50 L 702.50 285.50 L 665.00 284.96 L 665.00 265.04 L 706.50 264.50 L 706.50 245.50 L 673.75 245.24 ZM 1156.79 324.10 C1152.14,326.48 1148.52,326.45 1143.83,323.97 C1136.49,320.09 1134.01,313.95 1133.27,297.75 C1132.20,274.47 1137.47,264.01 1150.28,264.00 C1164.20,263.99 1169.83,274.27 1168.77,297.74 C1168.07,313.20 1165.04,319.87 1156.79,324.10 ZM 1261.30 324.39 C1253.94,328.10 1246.21,324.71 1241.63,315.76 C1239.03,310.68 1238.66,308.80 1238.23,298.28 C1237.54,281.30 1240.12,271.18 1246.32,266.59 C1248.54,264.95 1250.62,264.50 1256.00,264.50 C1264.67,264.50 1267.56,266.44 1270.98,274.59 C1273.21,279.89 1273.47,281.90 1273.48,294.00 C1273.51,313.10 1270.93,319.53 1261.30,324.39 ZM 1057.78 322.93 C1056.09,323.52 1050.94,324.00 1046.35,324.00 L 1038.00 324.00 L 1038.00 301.77 L 1048.61 302.17 C1058.75,302.54 1059.33,302.68 1061.61,305.34 C1063.36,307.37 1064.00,309.31 1064.00,312.59 C1064.00,318.02 1061.91,321.49 1057.78,322.93 ZM 1059.59 281.69 C1057.31,284.35 1056.66,284.52 1047.59,284.85 L 1038.00 285.19 L 1038.00 264.81 L 1047.59 265.15 C1056.66,265.48 1057.31,265.65 1059.59,268.31 C1061.24,270.23 1062.00,272.33 1062.00,275.00 C1062.00,277.67 1061.24,279.77 1059.59,281.69 ZM 771.50 305.75 C770.82,307.70 754.12,307.48 753.37,305.51 C753.05,304.69 754.16,299.63 755.83,294.26 C757.49,288.89 759.41,282.57 760.09,280.22 C760.78,277.87 761.79,276.10 762.34,276.28 C763.60,276.70 772.10,304.04 771.50,305.75 Z" fill="rgb(5,21,40)"/>
<path d="M 1816.00 0.00 L 1816.00 577.00 L 0.00 577.00 L 50.25 576.88 C82.95,576.80 98.40,576.45 94.50,575.89 C77.91,573.50 58.51,565.52 45.51,555.76 C22.58,538.52 5.75,510.59 2.07,483.68 C0.60,472.96 0.58,106.82 2.04,95.15 C4.58,74.87 14.33,54.28 29.65,36.84 C45.75,18.50 70.87,4.96 94.23,2.03 C106.07,0.55 1713.93,0.60 1724.68,2.08 C1750.17,5.60 1777.31,22.01 1793.73,43.80 C1804.18,57.68 1811.40,74.05 1814.40,90.66 C1815.72,97.93 1815.83,94.93 1815.91,49.25 L 1816.00 0.00 ZM 1735.50 552.63 C1752.90,545.90 1764.61,537.78 1775.53,524.88 C1781.14,518.25 1788.44,505.35 1791.88,496.00 C1792.37,494.65 1792.82,493.47 1793.23,492.28 C1797.00,481.18 1797.00,468.81 1796.96,302.42 L 1796.96 302.41 L 1796.95 288.50 C1796.91,115.87 1796.80,103.91 1795.12,95.00 C1790.98,73.07 1779.45,54.33 1761.14,39.78 C1750.15,31.05 1738.22,25.53 1723.78,22.52 C1717.30,21.17 1627.21,21.00 908.50,21.00 C221.31,21.00 99.50,21.21 93.83,22.39 C75.34,26.26 61.42,33.57 48.14,46.39 C35.46,58.63 28.34,71.00 21.88,92.00 C20.73,95.77 20.50,127.99 20.50,289.50 L 20.50 482.50 L 23.76 492.50 C29.68,510.70 40.06,526.15 53.86,537.33 C66.04,547.19 78.14,552.72 95.50,556.35 C96.60,556.58 463.80,556.71 911.50,556.64 L 1725.50 556.50 ZM 154.76 451.99 C133.36,448.30 113.11,434.71 101.15,416.02 C96.85,409.30 91.42,395.75 89.74,387.55 C88.81,383.00 88.50,358.57 88.50,289.00 L 88.50 196.50 L 90.89 187.50 C98.30,159.65 117.03,139.15 143.70,129.72 L 152.50 126.61 L 200.50 125.92 C226.90,125.54 270.77,125.39 298.00,125.59 C343.03,125.92 348.19,126.13 355.09,127.89 C387.08,136.08 410.62,162.05 415.94,195.00 C416.61,199.18 416.99,233.19 416.99,290.27 L 417.00 379.04 L 414.37 389.73 C411.09,403.08 409.25,407.40 402.47,417.59 C392.61,432.41 377.60,443.64 359.50,449.74 L 351.50 452.44 L 255.50 452.62 C202.70,452.72 157.37,452.43 154.76,451.99 ZM 348.16 441.59 C372.50,436.91 391.91,420.80 401.42,397.40 C406.83,384.09 406.83,383.98 406.36,287.00 C406.09,229.15 405.56,195.56 404.86,192.00 C403.61,185.59 398.59,174.21 393.96,167.33 C385.61,154.89 371.70,144.22 357.80,139.57 C347.54,136.15 338.73,135.88 247.00,136.22 C157.85,136.55 156.40,136.59 149.82,138.69 C137.67,142.57 129.20,147.75 119.86,157.03 C112.39,164.45 110.54,167.03 106.14,176.06 C104.63,179.18 103.39,181.65 102.38,184.21 C98.00,195.39 98.00,208.29 98.00,284.58 C98.00,286.52 98.00,288.51 98.00,290.54 C98.00,293.17 98.00,295.73 98.00,298.22 C98.00,371.65 97.99,383.92 102.19,394.52 C103.18,397.00 104.39,399.39 105.89,402.46 C116.64,424.45 136.33,439.08 159.50,442.29 C161.15,442.51 202.62,442.77 251.66,442.85 C324.78,442.97 342.14,442.75 348.16,441.59 ZM 1607.39 380.02 C1604.79,378.97 1601.16,374.48 1600.37,371.34 C1600.05,370.05 1600.09,367.77 1600.47,366.26 C1600.92,364.48 1613.93,350.67 1637.58,326.87 C1657.61,306.71 1674.00,289.60 1674.01,288.86 C1674.01,288.11 1657.88,271.52 1638.16,252.00 C1618.43,232.48 1601.78,215.52 1601.15,214.32 C1596.19,204.90 1608.36,193.10 1617.68,198.29 C1618.88,198.95 1638.74,218.24 1661.80,241.15 L 1663.74 243.07 C1699.34,278.43 1705.13,284.18 1704.60,289.26 C1704.48,290.34 1704.09,291.39 1703.63,292.68 C1702.37,296.22 1623.37,377.14 1618.80,379.57 C1615.83,381.14 1610.67,381.35 1607.39,380.02 ZM 1720.00 576.34 C1718.62,576.55 1739.66,576.79 1766.75,576.86 L 1816.00 577.00 L 1815.88 527.75 C1815.80,497.66 1815.44,480.64 1814.93,484.00 C1810.90,510.90 1795.02,538.04 1774.06,553.83 C1757.23,566.52 1741.58,573.03 1720.00,576.34 Z" fill="rgb(197,147,57)"/>
<path d="M 1012.57 335.99 C1011.75,327.73 1011.85,266.76 1012.70,253.67 L 1013.27 244.85 L 1037.39 245.25 C1059.34,245.61 1062.10,245.85 1068.17,247.95 C1079.99,252.02 1085.46,258.54 1086.66,269.97 C1087.49,277.95 1085.30,283.69 1079.47,288.82 L 1075.08 292.68 L 1079.08 294.93 C1081.29,296.16 1084.29,299.05 1085.76,301.34 C1088.11,305.00 1088.44,306.52 1088.47,314.00 C1088.49,321.17 1088.10,323.27 1085.97,327.41 C1082.93,333.32 1078.28,337.28 1070.95,340.20 C1065.96,342.19 1063.32,342.40 1039.39,342.76 L 1013.27 343.14 ZM 1014.75 341.46 C1015.16,341.90 1026.75,341.97 1040.50,341.62 C1069.50,340.88 1072.72,340.18 1080.12,333.00 C1085.86,327.43 1088.56,319.53 1087.59,311.16 C1086.60,302.74 1083.49,298.25 1076.01,294.47 C1072.82,292.85 1072.68,292.61 1074.40,291.60 C1081.88,287.20 1085.27,280.99 1085.17,271.86 C1085.04,259.23 1078.95,252.22 1064.50,248.07 C1059.58,246.65 1055.40,246.48 1032.25,246.77 L 1014.00 247.00 L 1014.00 293.83 C1014.00,319.59 1014.34,341.02 1014.75,341.46 ZM 1320.50 245.50 L 1343.70 244.94 L 1344.20 253.22 C1344.48,257.77 1344.66,266.79 1344.60,273.25 C1344.55,279.71 1344.61,285.00 1344.74,285.00 C1344.87,285.00 1346.21,283.09 1347.72,280.75 C1349.24,278.41 1355.35,269.41 1361.30,260.75 L 1372.12 245.00 L 1386.00 245.00 C1393.97,245.00 1400.14,245.42 1400.49,245.98 C1401.18,247.09 1399.38,249.78 1389.46,262.48 C1374.49,281.65 1369.84,288.15 1370.30,289.30 C1370.55,289.96 1374.72,297.02 1379.55,305.00 C1384.38,312.98 1391.19,324.22 1394.67,329.98 C1398.15,335.75 1401.00,341.04 1401.00,341.73 C1401.00,342.69 1397.67,343.00 1387.20,343.00 L 1373.40 343.00 L 1364.45 326.97 C1363.42,325.12 1362.49,323.44 1361.64,321.92 C1356.12,311.96 1354.25,308.60 1352.57,308.69 C1351.45,308.75 1350.41,310.32 1348.44,312.50 C1344.05,317.34 1343.93,317.65 1344.55,322.30 C1344.91,324.93 1344.88,330.67 1344.50,335.05 L 1343.79 343.00 L 1319.98 343.00 ZM 926.46 341.76 C926.20,341.07 926.10,319.12 926.24,293.00 L 926.50 245.50 L 993.50 245.50 L 993.50 264.50 L 972.25 264.77 L 951.00 265.04 L 951.00 282.95 L 987.50 283.50 L 987.50 301.50 L 969.22 301.77 L 950.93 302.05 L 951.22 312.77 L 951.50 323.50 L 972.79 323.77 L 994.07 324.04 L 993.79 333.27 L 993.50 342.50 L 960.22 342.76 C934.14,342.97 926.84,342.75 926.46,341.76 ZM 1321.00 247.00 L 1321.00 342.26 L 1331.50 341.80 C1337.28,341.54 1342.28,341.05 1342.62,340.72 C1342.96,340.38 1343.30,334.69 1343.39,328.07 L 1343.54 316.04 L 1347.98 311.52 C1350.42,309.03 1352.99,307.00 1353.69,307.00 C1354.39,307.00 1356.15,309.36 1357.61,312.25 C1359.06,315.14 1361.94,320.42 1364.02,324.00 C1366.09,327.58 1369.15,332.98 1370.82,336.00 C1373.77,341.37 1373.96,341.51 1378.67,341.83 C1381.33,342.01 1387.17,341.86 1391.65,341.50 L 1399.81 340.84 L 1394.03 331.17 C1390.86,325.85 1383.92,314.33 1378.63,305.57 C1373.33,296.81 1369.00,289.13 1369.00,288.49 C1369.00,287.86 1372.28,283.10 1376.29,277.92 C1390.17,259.99 1399.00,248.20 1399.00,247.60 C1399.00,247.27 1392.95,247.00 1385.57,247.00 L 1372.13 247.00 L 1366.38 255.25 C1363.22,259.79 1357.06,268.81 1352.70,275.30 C1348.34,281.79 1344.48,286.81 1344.13,286.46 C1343.79,286.11 1343.50,282.60 1343.49,278.66 C1343.49,274.72 1343.38,265.99 1343.24,259.25 L 1343.00 247.00 ZM 929.25 341.34 C931.11,342.09 960.53,342.09 977.84,341.34 L 993.00 340.69 L 993.00 325.00 L 973.08 325.00 C962.13,325.00 952.45,324.73 951.58,324.39 C950.27,323.89 950.00,321.86 950.00,312.39 L 950.00 301.00 L 987.00 301.00 L 987.00 284.00 L 950.00 284.00 L 950.00 264.00 L 993.00 264.00 L 993.00 247.00 L 928.00 247.00 L 928.00 293.92 C928.00,330.51 928.27,340.94 929.25,341.34 ZM 641.00 244.97 L 706.50 245.50 L 706.50 264.50 L 665.00 265.04 L 665.00 284.96 L 702.50 285.50 L 702.50 303.50 L 688.50 304.13 C680.80,304.47 672.36,304.81 669.75,304.88 L 665.00 305.00 L 665.00 343.00 L 641.00 343.00 ZM 642.00 247.00 L 642.00 341.00 L 664.00 341.00 L 664.02 323.25 C664.02,313.49 664.38,304.95 664.81,304.27 C665.37,303.40 670.71,302.97 683.54,302.77 L 701.50 302.50 L 701.50 286.50 L 664.50 285.50 L 664.50 264.50 L 684.62 264.23 L 704.73 263.96 L 705.37 259.34 C705.72,256.80 706.00,252.98 706.00,250.86 L 706.00 247.00 ZM 0.00 0.00 L 1765.33 0.00 C1737.47,0.00 1714.85,0.19 1715.08,0.42 C1715.32,0.65 1719.33,1.36 1724.00,2.00 C1724.16,2.02 1724.32,2.04 1724.49,2.06 C1702.12,0.62 152.96,0.55 95.79,1.97 C106.78,0.61 93.39,0.06 50.75,0.03 ZM 1060.68 322.40 C1058.33,324.15 1056.12,324.56 1047.43,324.84 C1039.16,325.11 1036.90,324.89 1036.47,323.77 C1036.17,323.00 1036.06,317.67 1036.21,311.93 L 1036.50 301.50 L 1047.00 301.24 C1055.99,301.01 1057.96,301.25 1060.70,302.94 C1067.02,306.83 1067.01,317.70 1060.68,322.40 ZM 1058.09 284.45 C1054.16,286.49 1037.19,286.66 1036.43,284.67 C1036.15,283.95 1036.05,279.11 1036.21,273.92 L 1036.50 264.50 L 1045.44 264.21 C1050.73,264.04 1055.55,264.40 1057.24,265.10 C1064.49,268.10 1065.06,280.85 1058.09,284.45 ZM 1057.78 322.93 C1061.91,321.49 1064.00,318.02 1064.00,312.59 C1064.00,309.31 1063.36,307.37 1061.61,305.34 C1059.33,302.68 1058.75,302.54 1048.61,302.17 L 1038.00 301.77 L 1038.00 324.00 L 1046.35 324.00 C1050.94,324.00 1056.09,323.52 1057.78,322.93 ZM 0.03 526.75 L 0.00 577.00 L 0.00 50.56 C0.00,92.61 0.61,107.79 1.90,97.48 C0.62,129.87 0.65,452.58 1.94,481.80 C0.56,472.21 0.06,484.79 0.03,526.75 ZM 1059.59 281.69 C1061.24,279.77 1062.00,277.67 1062.00,275.00 C1062.00,272.33 1061.24,270.23 1059.59,268.31 C1057.31,265.65 1056.66,265.48 1047.59,265.15 L 1038.00 264.81 L 1038.00 285.19 L 1047.59 284.85 C1056.66,284.52 1057.31,284.35 1059.59,281.69 ZM 229.61 378.42 C229.27,377.55 229.00,357.76 229.00,334.45 L 229.00 292.07 L 206.50 291.50 L 206.15 288.50 C205.96,286.85 206.12,279.54 206.50,272.25 L 207.00 262.87 L 207.00 290.94 L 230.50 291.50 L 231.02 379.00 L 264.90 379.00 L 265.21 337.25 C265.38,314.29 265.90,294.71 266.37,293.75 C267.11,292.22 268.79,292.00 279.63,292.00 C269.23,292.00 267.12,292.26 266.61,293.58 C266.27,294.45 266.00,314.25 266.00,337.58 L 266.00 380.00 L 248.11 380.00 C232.71,380.00 230.13,379.78 229.61,378.42 ZM 207.15 260.00 L 207.20 259.00 L 229.00 259.00 L 229.00 247.08 C229.00,224.22 235.17,210.47 248.31,204.04 C256.86,199.84 263.28,198.90 281.12,199.22 L 296.50 199.50 L 297.05 231.00 L 286.78 231.06 C269.22,231.15 266.08,233.63 266.00,248.12 C266.00,247.80 266.00,247.47 266.00,247.14 C266.00,232.30 268.68,230.00 285.97,230.00 L 296.00 230.00 L 296.00 200.89 L 275.75 201.19 C255.60,201.50 255.47,201.51 249.70,204.44 C240.79,208.95 235.75,215.44 232.11,227.07 C231.50,229.04 231.00,236.54 231.00,243.74 C231.00,250.94 230.73,257.55 230.39,258.42 C229.89,259.73 227.86,260.00 218.39,260.00 ZM 56.34 562.70 C68.06,569.17 82.07,574.10 94.50,575.89 C80.92,573.93 68.02,569.43 56.34,562.70 ZM 13.61 59.86 C15.62,55.97 17.79,52.28 20.03,49.00 C23.86,43.41 28.02,38.31 32.57,33.67 C31.57,34.71 30.59,35.76 29.65,36.84 C23.31,44.06 17.93,51.81 13.61,59.86 ZM 72.31 7.65 C79.04,5.00 85.58,3.20 91.11,2.48 C84.86,3.51 78.53,5.27 72.31,7.65 ZM 1759.62 14.35 C1767.88,18.95 1775.39,24.47 1782.07,30.85 C1775.33,24.49 1767.70,18.90 1759.62,14.35 ZM 5.80 499.85 C4.32,495.41 3.23,491.15 2.65,487.33 C3.40,491.50 4.46,495.69 5.80,499.85 ZM 28.10 539.33 C25.85,536.73 23.70,534.01 21.67,531.17 C20.11,529.00 18.60,526.69 17.15,524.29 C20.39,529.57 24.07,534.62 28.10,539.33 ZM 1732.99 3.67 C1735.15,4.16 1737.11,4.67 1738.50,5.13 C1739.52,5.47 1740.54,5.82 1741.55,6.18 C1738.70,5.20 1735.84,4.36 1732.99,3.67 ZM 1813.57 86.54 C1814.15,88.87 1814.58,90.98 1814.81,92.69 C1814.69,92.18 1814.55,91.48 1814.40,90.66 C1814.16,89.28 1813.88,87.91 1813.57,86.54 ZM 2.51 91.87 C2.89,89.16 3.53,86.17 4.41,83.02 C3.63,85.96 3.00,88.92 2.51,91.87 Z" fill="rgb(164,156,141)"/>
<path d="M 0.03 526.75 C0.06,480.49 0.66,469.94 2.40,485.45 C3.86,498.48 11.90,517.56 21.67,531.17 C39.28,555.70 65.30,571.68 94.50,575.89 C98.40,576.45 82.95,576.80 50.25,576.88 L 0.00 577.00 L 0.03 526.75 ZM 1720.00 576.34 C1741.58,573.03 1757.23,566.52 1774.06,553.83 C1795.02,538.04 1810.90,510.90 1814.93,484.00 C1815.44,480.64 1815.80,497.66 1815.88,527.75 L 1816.00 577.00 L 1766.75 576.86 C1739.66,576.79 1718.62,576.55 1720.00,576.34 ZM 230.76 335.25 L 230.50 291.50 L 218.75 291.22 L 207.00 290.94 L 207.00 275.47 L 207.00 260.00 L 218.39 260.00 C227.86,260.00 229.89,259.73 230.39,258.42 C230.73,257.55 231.00,250.94 231.00,243.74 C231.00,236.54 231.50,229.04 232.11,227.07 C235.75,215.44 240.79,208.95 249.70,204.44 C255.47,201.51 255.60,201.50 275.75,201.19 L 296.00 200.89 L 296.00 215.44 L 296.00 230.00 L 285.97 230.00 C268.68,230.00 266.00,232.30 266.00,247.14 C266.00,252.47 266.27,257.55 266.61,258.42 C267.12,259.76 269.46,260.00 282.21,260.00 L 297.20 260.00 L 296.52 266.25 C296.15,269.69 295.43,274.08 294.93,276.00 C294.42,277.92 294.01,281.16 294.01,283.18 C294.00,285.21 293.56,288.02 293.02,289.43 C292.05,292.00 292.04,292.00 279.63,292.00 C268.79,292.00 267.11,292.22 266.37,293.75 C265.90,294.71 265.38,314.29 265.21,337.25 L 264.90 379.00 L 247.96 379.00 L 231.02 379.00 L 230.76 335.25 ZM 854.73 342.91 C840.43,339.54 829.08,326.72 826.09,310.54 C823.76,297.91 825.10,279.15 829.11,268.43 C832.01,260.67 840.21,252.07 848.07,248.55 C858.79,243.74 876.24,244.02 886.32,249.17 C891.57,251.84 898.77,258.62 901.00,263.00 C903.47,267.85 906.12,278.28 905.13,279.27 C904.69,279.71 899.42,279.94 893.41,279.79 L 882.50 279.50 L 881.93 275.26 C880.88,267.36 874.05,263.33 863.25,264.23 C852.36,265.13 849.50,271.45 849.51,294.50 C849.51,311.22 850.29,315.55 854.15,320.46 C856.49,323.44 861.98,326.00 866.04,326.00 C873.84,326.00 881.99,319.23 882.00,312.75 L 882.00 310.00 L 894.00 310.00 C900.60,310.00 906.00,310.20 906.00,310.45 C906.00,312.20 902.87,322.36 901.53,324.95 C897.25,333.22 888.43,339.71 877.50,342.64 C871.92,344.13 860.49,344.27 854.73,342.91 ZM 1140.50 343.07 C1130.36,340.64 1119.11,331.65 1114.54,322.32 C1107.05,307.02 1107.19,280.46 1114.85,265.30 C1124.30,246.57 1150.88,239.25 1171.18,249.78 C1184.41,256.65 1193.00,273.51 1193.00,292.61 C1193.00,319.53 1182.67,336.34 1162.34,342.51 C1157.32,344.03 1145.73,344.33 1140.50,343.07 ZM 1156.79 324.10 C1165.04,319.87 1168.07,313.20 1168.77,297.74 C1169.83,274.27 1164.20,263.99 1150.28,264.00 C1137.47,264.01 1132.20,274.47 1133.27,297.75 C1134.01,313.95 1136.49,320.09 1143.83,323.97 C1148.52,326.45 1152.14,326.48 1156.79,324.10 ZM 1245.00 342.64 C1228.86,338.25 1218.08,325.63 1214.91,307.43 C1213.34,298.37 1214.29,281.34 1216.83,273.25 C1222.17,256.23 1234.74,246.40 1252.61,245.25 C1274.14,243.88 1289.01,254.28 1295.87,275.50 C1298.21,282.78 1298.06,306.38 1295.61,314.32 C1291.64,327.19 1280.10,338.80 1267.66,342.41 C1261.26,344.27 1251.37,344.37 1245.00,342.64 ZM 1261.30 324.39 C1270.93,319.53 1273.51,313.10 1273.48,294.00 C1273.47,281.90 1273.21,279.89 1270.98,274.59 C1267.56,266.44 1264.67,264.50 1256.00,264.50 C1250.62,264.50 1248.54,264.95 1246.32,266.59 C1240.12,271.18 1237.54,281.30 1238.23,298.28 C1238.66,308.80 1239.03,310.68 1241.63,315.76 C1246.21,324.71 1253.94,328.10 1261.30,324.39 ZM 716.57 342.11 C716.26,341.62 718.01,335.88 720.45,329.36 C722.88,322.84 726.08,314.12 727.56,310.00 C729.03,305.88 731.95,298.00 734.05,292.50 C736.14,287.00 740.62,275.10 744.00,266.06 C747.37,257.02 750.57,248.80 751.10,247.81 C751.94,246.24 753.46,246.00 762.41,246.00 C773.32,246.00 774.11,246.30 775.49,251.00 C776.15,253.26 781.46,267.62 801.46,321.35 C805.12,331.16 807.97,339.94 807.79,340.85 C807.52,342.27 805.84,342.50 795.53,342.50 L 783.59 342.50 L 781.00 334.00 L 778.41 325.50 L 762.05 325.50 L 745.69 325.50 L 743.06 333.50 L 740.44 341.50 L 733.97 342.13 C724.05,343.10 717.18,343.09 716.57,342.11 ZM 771.50 305.75 C772.10,304.04 763.60,276.70 762.34,276.28 C761.79,276.10 760.78,277.87 760.09,280.22 C759.41,282.57 757.49,288.89 755.83,294.26 C754.16,299.63 753.05,304.69 753.37,305.51 C754.12,307.48 770.82,307.70 771.50,305.75 ZM 929.25 341.34 C928.27,340.94 928.00,330.51 928.00,293.92 L 928.00 247.00 L 960.50 247.00 L 993.00 247.00 L 993.00 255.50 L 993.00 264.00 L 971.50 264.00 L 950.00 264.00 L 950.00 274.00 L 950.00 284.00 L 968.50 284.00 L 987.00 284.00 L 987.00 292.50 L 987.00 301.00 L 968.50 301.00 L 950.00 301.00 L 950.00 312.39 C950.00,321.86 950.27,323.89 951.58,324.39 C952.45,324.73 962.13,325.00 973.08,325.00 L 993.00 325.00 L 993.00 332.84 L 993.00 340.69 L 977.84 341.34 C960.53,342.09 931.11,342.09 929.25,341.34 ZM 1014.75 341.46 C1014.34,341.02 1014.00,319.59 1014.00,293.83 L 1014.00 247.00 L 1032.25 246.77 C1055.40,246.48 1059.58,246.65 1064.50,248.07 C1078.95,252.22 1085.04,259.23 1085.17,271.86 C1085.27,280.99 1081.88,287.20 1074.40,291.60 C1072.68,292.61 1072.82,292.85 1076.01,294.47 C1083.49,298.25 1086.60,302.74 1087.59,311.16 C1088.56,319.53 1085.86,327.43 1080.12,333.00 C1072.72,340.18 1069.50,340.88 1040.50,341.62 C1026.75,341.97 1015.16,341.90 1014.75,341.46 ZM 1060.68 322.40 C1067.01,317.70 1067.02,306.83 1060.70,302.94 C1057.96,301.25 1055.99,301.01 1047.00,301.24 L 1036.50 301.50 L 1036.21 311.93 C1036.06,317.67 1036.17,323.00 1036.47,323.77 C1036.90,324.89 1039.16,325.11 1047.43,324.84 C1056.12,324.56 1058.33,324.15 1060.68,322.40 ZM 1058.09 284.45 C1065.06,280.85 1064.49,268.10 1057.24,265.10 C1055.55,264.40 1050.73,264.04 1045.44,264.21 L 1036.50 264.50 L 1036.21 273.92 C1036.05,279.11 1036.15,283.95 1036.43,284.67 C1037.19,286.66 1054.16,286.49 1058.09,284.45 ZM 1321.00 294.63 L 1321.00 247.00 L 1332.00 247.00 L 1343.00 247.00 L 1343.24 259.25 C1343.38,265.99 1343.49,274.72 1343.49,278.66 C1343.50,282.60 1343.79,286.11 1344.13,286.46 C1344.48,286.81 1348.34,281.79 1352.70,275.30 C1357.06,268.81 1363.22,259.79 1366.38,255.25 L 1372.13 247.00 L 1385.57 247.00 C1392.95,247.00 1399.00,247.27 1399.00,247.60 C1399.00,248.20 1390.17,259.99 1376.29,277.92 C1372.28,283.10 1369.00,287.86 1369.00,288.49 C1369.00,289.13 1373.33,296.81 1378.63,305.57 C1383.92,314.33 1390.86,325.85 1394.03,331.17 L 1399.81 340.84 L 1391.65 341.50 C1387.17,341.86 1381.33,342.01 1378.67,341.83 C1373.96,341.51 1373.77,341.37 1370.82,336.00 C1369.15,332.98 1366.09,327.58 1364.02,324.00 C1361.94,320.42 1359.06,315.14 1357.61,312.25 C1356.15,309.36 1354.39,307.00 1353.69,307.00 C1352.99,307.00 1350.42,309.03 1347.98,311.52 L 1343.54 316.04 L 1343.39 328.07 C1343.30,334.69 1342.96,340.38 1342.62,340.72 C1342.28,341.05 1337.28,341.54 1331.50,341.80 L 1321.00 342.26 L 1321.00 294.63 ZM 642.00 294.00 L 642.00 247.00 L 674.00 247.00 L 706.00 247.00 L 706.00 250.86 C706.00,252.98 705.72,256.80 705.37,259.34 L 704.73 263.96 L 684.62 264.23 L 664.50 264.50 L 664.50 275.00 L 664.50 285.50 L 683.00 286.00 L 701.50 286.50 L 701.50 294.50 L 701.50 302.50 L 683.54 302.77 C670.71,302.97 665.37,303.40 664.81,304.27 C664.38,304.95 664.02,313.49 664.02,323.25 L 664.00 341.00 L 653.00 341.00 L 642.00 341.00 L 642.00 294.00 ZM 0.00 50.56 L 0.00 0.00 L 50.75 0.03 C96.99,0.06 108.84,0.71 92.48,2.33 C84.63,3.10 74.45,6.28 64.50,11.05 C45.94,19.95 31.46,32.31 20.03,49.00 C11.15,61.97 3.44,81.43 2.29,93.77 C0.73,110.48 0.00,96.67 0.00,50.56 ZM 1815.00 95.13 C1815.00,89.18 1809.83,72.20 1805.04,62.38 C1791.60,34.87 1768.51,15.00 1738.50,5.13 C1735.20,4.04 1728.68,2.63 1724.00,2.00 C1719.33,1.36 1715.32,0.65 1715.08,0.42 C1714.85,0.19 1737.47,-0.00 1765.33,-0.00 L 1816.00 0.00 L 1816.00 49.00 C1816.00,75.95 1815.78,98.00 1815.50,98.00 C1815.22,98.00 1815.00,96.71 1815.00,95.13 Z" fill="rgb(251,251,251)"/>
</g>
</svg>