<svg width="220" height="56" viewBox="0 0 220 56" fill="none" xmlns="http://www.w3.org/2000/svg" role="img" aria-label="GitHub">
  <defs>
    <linearGradient id="bg_github" x1="0" y1="0" x2="1" y2="1">
      <stop offset="0%" stop-color="#0B1F3A"/>
      <stop offset="100%" stop-color="#06111F"/>
    </linearGradient>
  </defs>
  <rect x="1" y="1" width="218" height="54" rx="12" fill="url(#bg_github)" stroke="#D9A441" stroke-opacity="0.75" stroke-width="2"/>
  <rect x="9" y="9" width="38" height="38" rx="9" fill="#D9A441" fill-opacity="0.14" stroke="#D9A441" stroke-opacity="0.55"/>
  <g transform="translate(18 18)" fill="#FFFFFF">
    <path d="M10 .3a10 10 0 0 0-3.2 19.5c.5.1.7-.2.7-.5v-2c-2.9.6-3.5-1.2-3.5-1.2-.5-1.1-1.1-1.4-1.1-1.4-.9-.6.1-.6.1-.6 1 0 1.6 1 1.6 1 .9 1.6 2.4 1.1 3 .9.1-.7.4-1.1.7-1.4-2.3-.3-4.7-1.2-4.7-5A3.9 3.9 0 0 1 4.6 7c-.1-.3-.4-1.3.1-2.7 0 0 .9-.3 2.8 1a9.6 9.6 0 0 1 5 0c1.9-1.3 2.8-1 2.8-1 .5 1.4.2 2.4.1 2.7a3.9 3.9 0 0 1 1 2.7c0 3.9-2.4 4.7-4.7 5 .4.3.7.9.7 1.8v2.8c0 .3.2.6.7.5A10 10 0 0 0 10 .3Z"/>
  </g>
  <text x="62" y="35" font-family="Inter, Segoe UI, Arial, sans-serif" font-size="16" font-weight="800" letter-spacing="1.2" fill="#FFFFFF">GITHUB</text>
  <path d="M194 20 L204 28 L194 36" stroke="#D9A441" stroke-width="3" stroke-linecap="round" stroke-linejoin="round"/>
</svg>
