<svg width="56" height="56" viewBox="0 0 56 56" fill="none" xmlns="http://www.w3.org/2000/svg" role="img" aria-label="GitHub">
  <defs>
    <linearGradient id="bg" x1="0" y1="0" x2="1" y2="1">
      <stop offset="0%" stop-color="#0B1F3A"/>
      <stop offset="100%" stop-color="#06111F"/>
    </linearGradient>
  </defs>
  <rect x="1.5" y="1.5" width="53" height="53" rx="13" fill="url(#bg)" stroke="#D9A441" stroke-width="3"/>
  <g transform="translate(14 14)" fill="#D9A441">
    <path d="M14 .4a14 14 0 0 0-4.5 27.3c.7.1 1-.3 1-.7v-2.8c-4 .9-4.9-1.7-4.9-1.7-.7-1.6-1.6-2-1.6-2-1.3-.9.1-.9.1-.9 1.4.1 2.2 1.5 2.2 1.5 1.3 2.2 3.4 1.6 4.2 1.2.1-.9.5-1.6 1-2-3.2-.4-6.6-1.6-6.6-7a5.5 5.5 0 0 1 1.5-3.8c-.1-.4-.6-1.8.2-3.8 0 0 1.2-.4 3.9 1.5a13.4 13.4 0 0 1 7 0c2.7-1.9 3.9-1.5 3.9-1.5.8 2 .3 3.4.2 3.8a5.5 5.5 0 0 1 1.5 3.8c0 5.4-3.4 6.6-6.6 7 .6.5 1 1.3 1 2.5V27c0 .4.3.8 1 .7A14 14 0 0 0 14 .4Z"/>
  </g>
</svg>