<svg width="56" height="56" viewBox="0 0 56 56" fill="none" xmlns="http://www.w3.org/2000/svg" role="img" aria-label="Instagram">
  <defs>
    <linearGradient id="bg" x1="0" y1="0" x2="1" y2="1">
      <stop offset="0%" stop-color="#0B1F3A"/>
      <stop offset="100%" stop-color="#06111F"/>
    </linearGradient>
  </defs>
  <rect x="1.5" y="1.5" width="53" height="53" rx="13" fill="url(#bg)" stroke="#D9A441" stroke-width="3"/>
  <g transform="translate(14 14)" fill="#D9A441">
    <path d="M20.7 0H7.3A7.3 7.3 0 0 0 0 7.3v13.4A7.3 7.3 0 0 0 7.3 28h13.4a7.3 7.3 0 0 0 7.3-7.3V7.3A7.3 7.3 0 0 0 20.7 0ZM14 21.3A7.3 7.3 0 1 1 14 6.7a7.3 7.3 0 0 1 0 14.6Zm7.7-13.2a1.7 1.7 0 1 1 0-3.4 1.7 1.7 0 0 1 0 3.4ZM14 9.4a4.6 4.6 0 1 0 0 9.2 4.6 4.6 0 0 0 0-9.2Z"/>
  </g>
</svg>