<svg width="260" height="56" viewBox="0 0 260 56" fill="none" xmlns="http://www.w3.org/2000/svg" role="img" aria-label="Instagram">
  <defs>
    <linearGradient id="bg_instagram" x1="0" y1="0" x2="1" y2="1">
      <stop offset="0%" stop-color="#0B1F3A"/>
      <stop offset="100%" stop-color="#06111F"/>
    </linearGradient>
  </defs>
  <rect x="1" y="1" width="258" height="54" rx="12" fill="url(#bg_instagram)" stroke="#D9A441" stroke-opacity="0.75" stroke-width="2"/>
  <rect x="9" y="9" width="38" height="38" rx="9" fill="#D9A441" fill-opacity="0.14" stroke="#D9A441" stroke-opacity="0.55"/>
  <g transform="translate(18 18)" fill="#FFFFFF">
    <path d="M14.8 0H5.2A5.2 5.2 0 0 0 0 5.2v9.6A5.2 5.2 0 0 0 5.2 20h9.6a5.2 5.2 0 0 0 5.2-5.2V5.2A5.2 5.2 0 0 0 14.8 0ZM10 15.2A5.2 5.2 0 1 1 10 4.8a5.2 5.2 0 0 1 0 10.4Zm5.5-9.4a1.2 1.2 0 1 1 0-2.4 1.2 1.2 0 0 1 0 2.4ZM10 6.7a3.3 3.3 0 1 0 0 6.6 3.3 3.3 0 0 0 0-6.6Z"/>
  </g>
  <text x="62" y="35" font-family="Inter, Segoe UI, Arial, sans-serif" font-size="16" font-weight="800" letter-spacing="1.2" fill="#FFFFFF">INSTAGRAM</text>
  <path d="M234 20 L244 28 L234 36" stroke="#D9A441" stroke-width="3" stroke-linecap="round" stroke-linejoin="round"/>
</svg>
