<svg width="248" height="56" viewBox="0 0 248 56" fill="none" xmlns="http://www.w3.org/2000/svg" role="img" aria-label="LinkedIn">
  <defs>
    <linearGradient id="bg_linkedin" x1="0" y1="0" x2="1" y2="1">
      <stop offset="0%" stop-color="#0B1F3A"/>
      <stop offset="100%" stop-color="#06111F"/>
    </linearGradient>
  </defs>
  <rect x="1" y="1" width="246" height="54" rx="12" fill="url(#bg_linkedin)" stroke="#D9A441" stroke-opacity="0.75" stroke-width="2"/>
  <rect x="9" y="9" width="38" height="38" rx="9" fill="#D9A441" fill-opacity="0.14" stroke="#D9A441" stroke-opacity="0.55"/>
  <g transform="translate(18 18)" fill="#FFFFFF">
    <path d="M2.4 7.1h3.9V20H2.4V7.1ZM4.4 1A2.3 2.3 0 1 1 4.3 5.6 2.3 2.3 0 0 1 4.4 1ZM8.7 7.1h3.7v1.8h.1c.5-1 1.8-2.1 3.8-2.1 4 0 4.7 2.6 4.7 6V20h-3.9v-6.4c0-1.5 0-3.5-2.1-3.5s-2.5 1.7-2.5 3.4V20H8.7V7.1Z"/>
  </g>
  <text x="62" y="35" font-family="Inter, Segoe UI, Arial, sans-serif" font-size="16" font-weight="800" letter-spacing="1.2" fill="#FFFFFF">LINKEDIN</text>
  <path d="M222 20 L232 28 L222 36" stroke="#D9A441" stroke-width="3" stroke-linecap="round" stroke-linejoin="round"/>
</svg>
