<svg width="56" height="56" viewBox="0 0 56 56" fill="none" xmlns="http://www.w3.org/2000/svg" role="img" aria-label="LinkedIn">
  <defs>
    <linearGradient id="bg" x1="0" y1="0" x2="1" y2="1">
      <stop offset="0%" stop-color="#0B1F3A"/>
      <stop offset="100%" stop-color="#06111F"/>
    </linearGradient>
  </defs>
  <rect x="1.5" y="1.5" width="53" height="53" rx="13" fill="url(#bg)" stroke="#D9A441" stroke-width="3"/>
  <g transform="translate(14 14)" fill="#D9A441">
    <path d="M3.4 9.9h5.4V28H3.4V9.9ZM6.2 1.4a3.2 3.2 0 1 1-.1 6.4 3.2 3.2 0 0 1 .1-6.4ZM12.2 9.9h5.2v2.5h.1c.7-1.4 2.5-2.9 5.3-2.9 5.6 0 6.6 3.6 6.6 8.4V28H24v-9c0-2.1 0-4.9-3-4.9s-3.5 2.4-3.5 4.8V28h-5.3V9.9Z"/>
  </g>
</svg>