<svg width="238" height="56" viewBox="0 0 238 56" fill="none" xmlns="http://www.w3.org/2000/svg" role="img" aria-label="Website">
  <defs>
    <linearGradient id="bg_website" x1="0" y1="0" x2="1" y2="1">
      <stop offset="0%" stop-color="#0B1F3A"/>
      <stop offset="100%" stop-color="#06111F"/>
    </linearGradient>
  </defs>
  <rect x="1" y="1" width="236" height="54" rx="12" fill="url(#bg_website)" stroke="#D9A441" stroke-opacity="0.75" stroke-width="2"/>
  <rect x="9" y="9" width="38" height="38" rx="9" fill="#D9A441" fill-opacity="0.14" stroke="#D9A441" stroke-opacity="0.55"/>
  <g transform="translate(18 18)" fill="#FFFFFF">
    <path d="M10 0a10 10 0 1 0 0 20A10 10 0 0 0 10 0Zm6.9 9H14a15.4 15.4 0 0 0-1.2-5A8.1 8.1 0 0 1 16.9 9ZM10 2c.7 1 1.5 3.2 1.8 7H8.2C8.5 5.2 9.3 3 10 2ZM2.3 11H6c.1 2 .5 3.8 1 5.1A8 8 0 0 1 2.3 11ZM6 9H2.3A8 8 0 0 1 7.2 4C6.6 5.4 6.2 7.1 6 9Zm4 9c-.7-1-1.5-3.2-1.8-7h3.6c-.3 3.8-1.1 6-1.8 7Zm2.8-1.9c.6-1.3 1-3.1 1.2-5.1h2.9a8.1 8.1 0 0 1-4.1 5.1Z"/>
  </g>
  <text x="62" y="35" font-family="Inter, Segoe UI, Arial, sans-serif" font-size="16" font-weight="800" letter-spacing="1.2" fill="#FFFFFF">WEBSITE</text>
  <path d="M212 20 L222 28 L212 36" stroke="#D9A441" stroke-width="3" stroke-linecap="round" stroke-linejoin="round"/>
</svg>
