<svg width="56" height="56" viewBox="0 0 56 56" fill="none" xmlns="http://www.w3.org/2000/svg" role="img" aria-label="Website">
  <defs>
    <linearGradient id="bg" x1="0" y1="0" x2="1" y2="1">
      <stop offset="0%" stop-color="#0B1F3A"/>
      <stop offset="100%" stop-color="#06111F"/>
    </linearGradient>
  </defs>
  <rect x="1.5" y="1.5" width="53" height="53" rx="13" fill="url(#bg)" stroke="#D9A441" stroke-width="3"/>
  <g transform="translate(14 14)" fill="#D9A441">
    <path d="M14 0a14 14 0 1 0 0 28A14 14 0 0 0 14 0Zm9.7 12.6h-4.1c-.2-2.7-.8-5.1-1.7-7A11.3 11.3 0 0 1 23.7 12.6ZM14 2.8c1 1.4 2.1 4.5 2.5 9.8h-5C11.9 7.3 13 4.2 14 2.8Zm-10.8 14h5.2c.2 2.8.8 5.3 1.7 7.1a11.2 11.2 0 0 1-6.9-7.1Zm5.2-4.2H3.2a11.2 11.2 0 0 1 6.9-7c-.9 1.9-1.5 4.3-1.7 7ZM14 25.2c-1-1.4-2.1-4.5-2.5-8.4h5c-.4 3.9-1.5 7-2.5 8.4Zm3.9-1.3c.9-1.9 1.5-4.3 1.7-7.1h4.1a11.3 11.3 0 0 1-5.8 7.1Z"/>
  </g>
</svg>