<svg width="56" height="56" viewBox="0 0 56 56" fill="none" xmlns="http://www.w3.org/2000/svg" role="img" aria-label="WhatsApp">
  <defs>
    <linearGradient id="bg" x1="0" y1="0" x2="1" y2="1">
      <stop offset="0%" stop-color="#0B1F3A"/>
      <stop offset="100%" stop-color="#06111F"/>
    </linearGradient>
  </defs>
  <rect x="1.5" y="1.5" width="53" height="53" rx="13" fill="url(#bg)" stroke="#D9A441" stroke-width="3"/>
  <g transform="translate(14 14)" fill="#D9A441">
    <path d="M14.1 0A13.9 13.9 0 0 0 2.2 21.1L0 28l7.1-2.1A14 14 0 1 0 14.1 0Zm0 25.4c-2.2 0-4.2-.6-5.9-1.7l-.4-.2-4.2 1.2 1.3-4-.3-.4a11.3 11.3 0 1 1 9.5 5.1Zm6.2-8.5c-.3-.2-2-1-2.3-1.1-.3-.1-.6-.2-.8.2-.2.3-.9 1.1-1.1 1.4-.2.2-.4.3-.8.1-.3-.2-1.5-.5-2.8-1.7-1-1-1.7-2.1-2-2.4-.2-.4 0-.6.2-.8.2-.2.3-.4.5-.6.2-.2.2-.3.3-.6.1-.2.1-.4 0-.6-.1-.2-.8-1.9-1.1-2.6-.3-.7-.6-.6-.8-.6h-.7c-.2 0-.6.1-.9.4-.3.3-1.2 1.2-1.2 2.9s1.2 3.3 1.4 3.6c.2.2 2.4 3.7 5.9 5.2.8.3 1.5.5 2 .7.8.3 1.6.2 2.2.1.7-.1 2-.8 2.3-1.6.3-.8.3-1.5.2-1.6-.1-.2-.3-.3-.6-.4Z"/>
  </g>
</svg>