<svg width="56" height="56" viewBox="0 0 56 56" fill="none" xmlns="http://www.w3.org/2000/svg" role="img" aria-label="YouTube">
  <defs>
    <linearGradient id="bg" x1="0" y1="0" x2="1" y2="1">
      <stop offset="0%" stop-color="#0B1F3A"/>
      <stop offset="100%" stop-color="#06111F"/>
    </linearGradient>
  </defs>
  <rect x="1.5" y="1.5" width="53" height="53" rx="13" fill="url(#bg)" stroke="#D9A441" stroke-width="3"/>
  <g transform="translate(14 14)" fill="#D9A441">
    <path d="M27.4 7.1a3.5 3.5 0 0 0-2.5-2.5C22.8 4 14 4 14 4S5.2 4 3.1 4.6A3.5 3.5 0 0 0 .6 7.1 36.5 36.5 0 0 0 0 14c0 2.4.2 4.8.6 6.9a3.5 3.5 0 0 0 2.5 2.5C5.2 24 14 24 14 24s8.8 0 10.9-.6a3.5 3.5 0 0 0 2.5-2.5c.4-2.1.6-4.5.6-6.9s-.2-4.8-.6-6.9ZM11.2 18.4V9.6L18.6 14l-7.4 4.4Z"/>
  </g>
</svg>