<svg width="238" height="56" viewBox="0 0 238 56" fill="none" xmlns="http://www.w3.org/2000/svg" role="img" aria-label="YouTube">
  <defs>
    <linearGradient id="bg_youtube" x1="0" y1="0" x2="1" y2="1">
      <stop offset="0%" stop-color="#0B1F3A"/>
      <stop offset="100%" stop-color="#06111F"/>
    </linearGradient>
  </defs>
  <rect x="1" y="1" width="236" height="54" rx="12" fill="url(#bg_youtube)" stroke="#D9A441" stroke-opacity="0.75" stroke-width="2"/>
  <rect x="9" y="9" width="38" height="38" rx="9" fill="#D9A441" fill-opacity="0.14" stroke="#D9A441" stroke-opacity="0.55"/>
  <g transform="translate(18 18)" fill="#FFFFFF">
    <path d="M19.6 5.1a2.5 2.5 0 0 0-1.8-1.8C16.3 2.9 10 2.9 10 2.9s-6.3 0-7.8.4A2.5 2.5 0 0 0 .4 5.1 26 26 0 0 0 0 10c0 1.7.1 3.4.4 4.9a2.5 2.5 0 0 0 1.8 1.8c1.5.4 7.8.4 7.8.4s6.3 0 7.8-.4a2.5 2.5 0 0 0 1.8-1.8c.3-1.5.4-3.2.4-4.9s-.1-3.4-.4-4.9ZM8 13.1V6.9l5.3 3.1L8 13.1Z"/>
  </g>
  <text x="62" y="35" font-family="Inter, Segoe UI, Arial, sans-serif" font-size="16" font-weight="800" letter-spacing="1.2" fill="#FFFFFF">YOUTUBE</text>
  <path d="M212 20 L222 28 L212 36" stroke="#D9A441" stroke-width="3" stroke-linecap="round" stroke-linejoin="round"/>
</svg>
